/* XPM */
static char * dart_48_48_xpm[] = {
"48 48 93 2",
"  	c #0077C9",
". 	c #BBDEF0",
"+ 	c #4EA8D9",
"@ 	c #00D1B8",
"# 	c #0096C4",
"$ 	c #65BDDC",
"% 	c #1EB0C8",
"& 	c #00A6E6",
"* 	c #E6FBF8",
"= 	c #90C9E7",
"- 	c #19D6BF",
"; 	c #00ACBF",
"> 	c #64E4D4",
", 	c #C7EAFB",
"' 	c #6DD2E0",
") 	c #0082C7",
"! 	c #2BB3E9",
"~ 	c #ACF0E8",
"{ 	c #008BCF",
"] 	c #6CCBEF",
"^ 	c #3BBAEB",
"/ 	c #00DDB5",
"( 	c #43DDCB",
"_ 	c #C6EBF9",
": 	c #6BE5D6",
"< 	c #FFFFFF",
"[ 	c #009CDE",
"} 	c #7EC0E3",
"| 	c #B5D8F0",
"1 	c #31DBC6",
"2 	c #E2F5FC",
"3 	c #0BD8B8",
"4 	c #0073CB",
"5 	c #57E1D0",
"6 	c #28BBC9",
"7 	c #55D5D4",
"8 	c #309AD2",
"9 	c #DEF9F6",
"0 	c #ECF1FC",
"a 	c #00B5BE",
"b 	c #19ADE7",
"c 	c #7CE8DB",
"d 	c #73E6D8",
"e 	c #2BDAC4",
"f 	c #39B8EA",
"g 	c #BBF3EC",
"h 	c #51E0CF",
"i 	c #22D8C1",
"j 	c #00D7B7",
"k 	c #2795D0",
"l 	c #72CDF0",
"m 	c #F0FBFE",
"n 	c #0084CE",
"o 	c #93D8F4",
"p 	c #008FD4",
"q 	c #B5F2EA",
"r 	c #70B9E0",
"s 	c #F3F9FC",
"t 	c #D8F8F4",
"u 	c #87C4E5",
"v 	c #EEF9FD",
"w 	c #007BCA",
"x 	c #10D5BC",
"y 	c #C6ECF1",
"z 	c #68ADE0",
"A 	c #00A1E1",
"B 	c #83E9DC",
"C 	c #B7F2EB",
"D 	c #09A7E5",
"E 	c #49DFCC",
"F 	c #21D6BD",
"G 	c #F7FEFD",
"H 	c #2AD9C4",
"I 	c #7CD0F1",
"J 	c #09D4BB",
"K 	c #0685C9",
"L 	c #65ECD3",
"M 	c #007CC6",
"N 	c #009CC3",
"O 	c #5ADED6",
"P 	c #E8F4FA",
"Q 	c #ECFFF8",
"R 	c #0093D7",
"S 	c #3DDDC9",
"T 	c #0986CA",
"U 	c #2EB4E8",
"V 	c #B5DEEF",
"W 	c #8BC6E6",
"X 	c #B1F7E7",
"Y 	c #93CAE8",
"Z 	c #C8F5F0",
"` 	c #73BAE1",
" .	c #6BB6DF",
"< < < < < < < < < < < < < < < < < < < < < < < < < Q G < < < < < < < < < < < < < < < < < < < < < ",
"< < < < < < < < < < < < < < < < < < < < < < < Q c H E ~ < < < < < < < < < < < < < < < < < < < < ",
"< < < < < < < < < < < < < < < < < < < < < < C e @ @ @ @ B < < < < < < < < < < < < < < < < < < < ",
"< < < < < < < < < < < < < < < < < < < < m d J @ @ @ @ @ @ B < < < < < < < < < < < < < < < < < < ",
"< < < < < < < < < < < < < < < < < < < q 1 @ @ @ @ @ @ @ @ @ c < < < < < < < < < < < < < < < < < ",
"< < < < < < < < < < < < < < < < < Q d @ @ @ @ @ @ @ @ @ @ @ @ c < < < < < < < < < < < < < < < < ",
"< < < < < < < < < < < < < < < < q i @ @ @ @ @ @ @ @ @ @ @ @ @ @ c < < < < < < < < < < < < < < < ",
"< < < < < < < < < < < < < < * > @ @ @ @ @ @ @ @ @ @ @ @ @ @ @ @ @ B < < < < < < < < < < < < < < ",
"< < < < < < < < < < < < < ~ H @ @ @ @ @ @ @ @ @ @ @ @ @ @ @ @ @ @ - v < < < < < < < < < < < < < ",
"< < < < < < < < < < < Q L j j j j j j j j j j j j j j j j j j j j j X < < < < < < < < < < < < < ",
"< < < < < < < < < < y 6 a a a a a a a a a a a a a a a a a a a a a a 7 m < < < < < < < < < < < < ",
"< < < < < < < < < 0 % ; 4 w w w w w w w w w w w w w w w w w w w w w n U I 2 < < < < < < < < < < ",
"< < < < < < < < < z N / ;     ) ) ) ) ) ) ) ) ) ) ) ) ) ) ) ) ) ) ) ) [ & b o < < < < < < < < < ",
"< < < < < < < < | w N / / ;   ) ) ) ) ) ) ) ) ) ) ) ) ) ) ) ) ) ) ) ) { & & & ] < < < < < < < < ",
"< < < < < < < P k w N j j j ;   ) ) ) ) ) ) ) ) ) ) ) ) ) ) ) ) ) ) ) ) A & & & ] < < < < < < < ",
"< < < < < < <  .) w N j j j j ;   ) ) ) ) ) ) ) ) ) ) ) ) ) ) ) ) ) ) ) R & & & & ] < < < < < < ",
"< < < < < < . K ) w N j @ @ @ / ;   ) ) ) ) ) ) ) ) ) ) ) ) ) ) ) ) ) ) { & & & & & l < < < < < ",
"< < < < < v k ) ) w N j @ @ @ @ / ; w ) ) ) ) ) ) ) ) ) ) ) ) ) ) ) ) ) ) A & & & & & l < < < < ",
"< < < < < r ) ) ) w N j @ @ @ @ @ / ;   ) ) ) ) ) ) ) ) ) ) ) ) ) ) ) ) ) R & & & & & & l < < < ",
"< < < < . T ) ) ) w N j @ @ @ @ @ @ / ;   ) ) ) ) ) ) ) ) ) ) ) ) ) ) ) ) { & & & & & & & l < < ",
"< < < s 8 ) ) ) ) w N j @ @ @ @ @ @ @ / ;   ) ) ) ) ) ) ) ) ) ) ) ) ) ) ) ) A & & & & & & & I < ",
"< < < ` ) ) ) ) ) w N j @ @ @ @ @ @ @ @ / ;   ) ) ) ) ) ) ) ) ) ) ) ) ) ) ) R & & & & & & & ! m ",
"< < . K ) ) ) ) ) w N j @ @ @ @ @ @ @ @ @ / ;   ) ) ) ) ) ) ) ) ) ) ) ) ) ) ) & & & & & & & f m ",
"< v 8 ) ) ) ) ) ) w N j @ @ @ @ @ @ @ @ @ @ / ; w ) ) ) ) ) ) ) ) ) ) ) ) ) ) [ & & & & & & f m ",
"< } ) ) ) ) ) ) ) w N j @ @ @ @ @ @ @ @ @ @ @ / ;   ) ) ) ) ) ) ) ) ) ) ) ) ) p & & & & & & f m ",
"v 8 ) ) ) ) ) ) ) w N j @ @ @ @ @ @ @ @ @ @ @ @ / ;   ) ) ) ) ) ) ) ) ) ) ) ) ) & & & & & & f m ",
"G + ) ) ) ) ) ) ) w N j @ @ @ @ @ @ @ @ @ @ @ @ @ / ;   ) ) ) ) ) ) ) ) ) ) ) ) [ & & & & & f m ",
"< . ) ) ) ) ) ) ) w N j @ @ @ @ @ @ @ @ @ @ @ @ @ @ / ;   ) ) ) ) ) ) ) ) ) ) ) p & & & & & f m ",
"< < = ) ) ) ) ) ) w N j @ @ @ @ @ @ @ @ @ @ @ @ @ @ @ / ;   ) ) ) ) ) ) ) ) ) ) ) A & & & & f m ",
"< < < W ) ) ) ) ) w N j @ @ @ @ @ @ @ @ @ @ @ @ @ @ @ @ / ;   ) ) ) ) ) ) ) ) ) ) [ & & & & f m ",
"< < < < W ) ) ) ) w N j @ @ @ @ @ @ @ @ @ @ @ @ @ @ @ @ @ / ;   ) ) ) ) ) ) ) ) ) { & & & & f m ",
"< < < < < u ) ) ) w N j @ @ @ @ @ @ @ @ @ @ @ @ @ @ @ @ @ @ / ;   ) ) ) ) ) ) ) ) ) A & & & f m ",
"< < < < < < u ) ) w N j @ @ @ @ @ @ @ @ @ @ @ @ @ @ @ @ @ @ @ / ; w ) ) ) ) ) ) ) ) R & & & f m ",
"< < < < < < < Y 8 w # j j @ @ @ @ @ @ @ @ @ @ @ @ @ @ @ @ @ @ @ / ;   ) ) ) ) ) ) ) { & & & f m ",
"< < < < < < < < s | $ x j @ @ @ @ @ @ @ @ @ @ @ @ @ @ @ @ @ @ @ @ / ;   ) ) ) ) ) ) ) A & & f m ",
"< < < < < < < < < < < c ( H J @ @ @ @ @ @ @ @ @ @ @ @ @ @ @ @ @ @ @ / ;   ) ) ) ) ) { & & & f m ",
"< < < < < < < < < < < g > d > ( i J @ @ @ @ @ @ @ @ @ @ @ @ @ @ @ @ @ / ;   ) ) ) ) [ & & & f m ",
"< < < < < < < < < < < G d > : d d > ( i @ @ @ @ @ @ @ @ @ @ @ @ @ @ @ @ / ;     ) { & & & & ! v ",
"< < < < < < < < < < < < Z 5 > > : d d : 5 S - @ @ @ @ @ @ @ @ @ @ @ @ @ @ / ; w w [ & & D ! o < ",
"< < < < < < < < < < < < < ~ 5 > > > > : : d : 5 1 - @ @ @ @ @ @ @ @ @ @ @ @ / ; n D ^ I _ < < < ",
"< < < < < < < < < < < < < < ~ 5 > : > > > > > d d : h 1 x @ @ @ @ @ @ @ @ @ @ 3 ' , < < < < < < ",
"< < < < < < < < < < < < < < < ~ 5 > : > > > > > > : d d > E e J @ @ @ @ @ - ( > Q < < < < < < < ",
"< < < < < < < < < < < < < < < < ~ 5 > > > > > > > > > > : d d > E i x i h : > B < < < < < < < < ",
"< < < < < < < < < < < < < < < < < ~ 5 > : > > > > > > > > > > : d d > d d : 5 ~ < < < < < < < < ",
"< < < < < < < < < < < < < < < < < < ~ 5 > : > > > > > > > > > > > : : : > > > 9 < < < < < < < < ",
"< < < < < < < < < < < < < < < < < < < ~ 5 > > > > > > > > > > > > > > > > 5 c < < < < < < < < < ",
"< < < < < < < < < < < < < < < < < < < < C : : d d : : : : : : : : : : : d > ~ < < < < < < < < < ",
"< < < < < < < < < < < < < < < < < < < < < 9 9 9 9 9 t t t t t t t t t t t t G < < < < < < < < < "};
