/* XPM */
static char * dart_xpm[] = {
"48 48 98 2",
"  	c None",
". 	c #00D2B8",
"+ 	c #00D2B7",
"@ 	c #00D1B8",
"# 	c #00D1B7",
"$ 	c #00D7B7",
"% 	c #00D6B7",
"& 	c #00D8B7",
"* 	c #00DEB4",
"= 	c #00AAC0",
"- 	c #00A7C0",
"; 	c #00A2C1",
"> 	c #00A4C1",
", 	c #00A3C1",
"' 	c #00A6C0",
") 	c #00AAC2",
"! 	c #00ABBF",
"~ 	c #0077CA",
"{ 	c #0076CA",
"] 	c #007AC9",
"^ 	c #0078C8",
"/ 	c #0080CA",
"( 	c #009ADB",
"_ 	c #00A6E6",
": 	c #007BC9",
"< 	c #00AFBE",
"[ 	c #00DDB5",
"} 	c #00ABC0",
"| 	c #0081C8",
"1 	c #007DC8",
"2 	c #0083C7",
"3 	c #0082C7",
"4 	c #0080C6",
"5 	c #0090D3",
"6 	c #00A6E5",
"7 	c #00A4E4",
"8 	c #00A3E3",
"9 	c #007CC9",
"0 	c #00AEBF",
"a 	c #00DCB5",
"b 	c #00D3B7",
"c 	c #007EC8",
"d 	c #0082C8",
"e 	c #0081C7",
"f 	c #007FC6",
"g 	c #0088CC",
"h 	c #00A1E1",
"i 	c #00A5E5",
"j 	c #00D9B6",
"k 	c #0080C8",
"l 	c #0097D9",
"m 	c #00D0B8",
"n 	c #00D7B6",
"o 	c #00D4B7",
"p 	c #007FC5",
"q 	c #008ED2",
"r 	c #00D5B7",
"s 	c #0087CC",
"t 	c #009EDF",
"u 	c #0096D8",
"v 	c #00A7E6",
"w 	c #0085CB",
"x 	c #009DDE",
"y 	c #0095D8",
"z 	c #00A4E3",
"A 	c #008CD0",
"B 	c #00A1E2",
"C 	c #00A3E4",
"D 	c #0080C7",
"E 	c #009CDD",
"F 	c #0094D6",
"G 	c #00A5E4",
"H 	c #0089CE",
"I 	c #0092D5",
"J 	c #0086CB",
"K 	c #00A2E2",
"L 	c #009ADC",
"M 	c #008FD3",
"N 	c #00AEBE",
"O 	c #0086CC",
"P 	c #0083C9",
"Q 	c #0098DA",
"R 	c #00ADBF",
"S 	c #00DAB6",
"T 	c #009FDF",
"U 	c #0075CA",
"V 	c #00A8C0",
"W 	c #0096D9",
"X 	c #0085CA",
"Y 	c #008DD1",
"Z 	c #009BDC",
"` 	c #007BC6",
" .	c #008BD0",
"..	c #00AABE",
"+.	c #0095DB",
"@.	c #00D0B7",
"#.	c #00ACC3",
"$.	c #009BE2",
"                                                                                                ",
"                                                . . + .                                         ",
"                                            . . + + @ # .                                       ",
"                                          . . . + . @ . . .                                     ",
"                                      . . + + . . + . . . . @                                   ",
"                                    @ + . . . . . . . . . . . .                                 ",
"                                + @ @ # . . . . . + . . . + @ + .                               ",
"                              @ @ @ @ @ @ @ @ @ @ @ @ @ @ @ @ @ @ @                             ",
"                          # # # # # # # # # # # # # # # # # # + + @                             ",
"                        $ % % % % % % % % % % % % % % % % % % % % & *                           ",
"                    = - ; > > , , > > > > > > > > > > > > , > , , ' )                           ",
"                    ! ! ~ { ] ] ] ] ] ] ] ] ] ] ] ] ] ] ] ] ] ] ] ^ / ( _                       ",
"                  : < [ } | 1 2 2 2 2 2 2 2 2 2 2 2 2 2 2 2 2 2 2 3 4 5 6 7 8                   ",
"                3 9 0 a b } c 9 3 3 3 3 d d 3 d e d | d 3 3 d d | d f g h i 7 7                 ",
"                3 9 0 j % % } k c 3 | 3 d d 3 d e d | d 3 e e 3 | d e d l _ 7 7 7               ",
"              3 3 9 0 j m n o } k c 3 | 3 d d d e d d d 3 e e 3 d d d p q i 7 8 8 7             ",
"            d 3 3 9 0 j m @ r o ! k c 3 | d 3 e | d e e e e e 3 e d d f s t i 8 7 7 8           ",
"            d 3 3 9 0 j m @ @ r b ! k c 3 3 e e e d | | e e e e e d d e e u v 8 7 7 7 7         ",
"          e d 3 3 9 0 j m . + @ r b } k c 3 3 3 e d | d 3 3 3 3 e 3 e d p q 7 7 8 7 8 7 7       ",
"        | 3 d 3 3 9 0 j m . @ + @ r o } k 9 3 3 e d d d 3 e e 3 d d e d 4 w x 6 8 7 7 7 7 7     ",
"        3 d d 3 3 9 0 j m . . @ + @ r o } c 9 3 3 d | | e e | d | d d d e f y _ 8 7 7 7 z z 7   ",
"      | 3 e 3 3 3 9 0 j m . . . # @ @ n % } k c 3 | 3 d 3 3 d d d d d e d p A B 7 8 7 8 C 7 z   ",
"    3 d 3 e 3 3 3 9 0 j m . . . # # @ @ n o } k c 3 | d 3 3 3 e 3 3 3 e d D d E _ C z 8 C 7 7   ",
"    d e d d d 3 3 9 0 j m . . # # # . @ @ r o } k c 3 3 3 d d d | d d d e e p F G 7 8 7 C z z   ",
"  3 d 3 3 3 3 3 3 9 0 j m @ @ # # # @ . @ @ r b ! k c 3 3 3 3 3 e d 3 d e e 4 H B 6 8 z C z 7   ",
"  d 3 3 d | d 3 3 9 0 j m . . . # # . . . + @ r o } k 9 3 3 | d d d d d d e 4 d E _ 7 8 7 z 7   ",
"  d d d d | d 3 3 9 0 j m . . # # # . . . @ + @ r o } c 9 3 3 d d d d d 3 d e 4 I i G 8 C z 8   ",
"  d d d d d d 3 3 9 0 j m . . # @ # . @ . . . @ @ n % } k c 3 | 3 d 3 d 3 d e f J K 6 7 C z 7   ",
"    d d 3 | d 3 3 9 0 j m . . + @ # . . . . . . @ @ n o ! k c 3 | 3 3 3 3 d d 4 e L i 7 7 7 z   ",
"      d 3 e d 3 3 9 0 j m # # # # # # . # . + # + @ @ r o ! k c 3 | d d 3 d d e 4 M i G 8 7 z   ",
"        d | d 3 3 9 N j m # # # # # # # # # + + . + @ @ r b ! k c 3 3 e 3 d e e p O K i 7 8 8   ",
"          d d 3 3 : 0 j m + # # # # # . # . + + + + @ + @ r b ! k c 3 3 3 d e d 4 P Q 6 7 8 8   ",
"            d d 3 : R S m + . + @ + . . . . . . . . . @ + @ r o } k 9 3 3 d | e e 4 q 6 7 8 7   ",
"              3 3 ] = j @ @ . @ # # . @ . . . . + . . . @ + @ r o } c 9 3 3 d e d 4 s T i 7 C   ",
"                  U V . + @ . @ # @ . @ . . . . + . . . . . @ @ n % } k c 3 | 3 | e d W 6 7 z   ",
"                      m + @ # . # . . . @ # . . . . . . . # # @ @ n o ! k c 3 | d 4 X E i 7 7   ",
"                        @ + # + + @ + @ . + . # . # . @ . + # + @ @ r o } k c 3 e 4 Y i 7 7 8   ",
"                        # . # # . # + . . @ . . . . . . . # # # . @ @ r b } k c 4 P Z 6 7 8 7   ",
"                          . + . . # . @ + . . . . + . . . + # + . . + @ r b } D `  .7 i 7 8 7   ",
"                          . . @ . # . @ . . . + + . . . . @ # # # @ @ + @ r o ..2 +.i 7 8       ",
"                            @ . . # + # @ . # # + . . + . . # + + . . @ + @ r @.#.$.            ",
"                              @ . # # . . . . @ . @ . . . @ @ # . @ . . . @ @ r                 ",
"                                @ # . @ . . . # . @ @ # . . @ . # @ . . @ @ @ .                 ",
"                                    + @ # . . @ . . . # # . . . . @ # @ @ . @ #                 ",
"                                      . + . . @ . . @ # . . + . @ . @ + # . .                   ",
"                                        . . . . . . . . . . . . . . . . . # .                   ",
"                                          . . . . . . . . . . . . . . . . # .                   ",
"                                                                                                "};
