/* XPM */
static char *xpm_[] = {
/* columns rows colors chars-per-pixel */
"48 48 9 1",
"  c #BDBDBD",
". c #C7C7C7",
"X c #CCCCCC",
"o c #D6D6D6",
"O c #DEDEDE",
"+ c #E6E6E6",
"@ c #EFEFEF",
"# c #F7F7F7",
"$ c #FFFFFF",
/* pixels */
"$$$$$$$$$$$$$$$$$$$$$$$$$$$$$$$$$$$$$$$$$$$$$$$$",
"$$$$$$$$$$$$$$$$$$$$$$$$$$$$$$$$$$$$$$$$$$$$$$$$",
"$$$$$$$$$$$$$$$$$$$$$$$$$$$$$$$$$$$$$$$$$$$$$$$$",
"$$$$$$$@++++++++++++++++++++++++++++++++@$$$$$$$",
"$$$$$@+++OOOOOOOOOOOOOOOOOOOOOOOOOOOOOO+++@$$$$$",
"$$$$@+OOOOOOOOOOOOOOOOOOOOOOOOOOOOOOOOOOOOO@$$$$",
"$$$@+OO@#$$$$$$$$$$$$$$$$$$$$$$$$$$$$$$$#+OO@$$$",
"$$$+++#$$$$$$$$$$$$@++@$$@++@$$$$$$$$$$$$$+++$$$",
"$$#+O@$$$$$$$$$$$$+XX.O$$O.XX+$$$$$$$$$$$$@O+#$$",
"$$@++#$$$$$$$$$$$#Xoo+#$$#+ooo#$$$$$$$$$$$#++@$$",
"$$@++#$$$$$$$$$$$+XX@$$$$$$@oo@$$$$$$$$$$$#++@$$",
"$$@++#$$$$$$$$$$$+Xo$$$$$$$$oX+$$$$$$$$$$$#++@$$",
"$$@++#$$$$$$$$$$$+XO$$$$$$$$OX+$$$$$$$$$$$#++@$$",
"$$@++#$$$$$$$$$$$+XO$$$$$$$$OX+$$$$$$$$$$$#++@$$",
"$$@++#$$$$$$$$$$$+XO$$$$$$$$OX+$$$$$$$$$$$#++@$$",
"$$@++#$$$$$$$$$$$+XO$$$$$$$$OX+$$$$$$$$$$$#++@$$",
"$$@++#$$$$$$$$$$$+XO$$$$$$$$OX+$$$$$$$$$$$#++@$$",
"$$@++#$$$$$$$$$$$+XO$$$$$$$$OX+$$$$$$$$$$$#++@$$",
"$$@++#$$$$$$$$$$$+XO$$$$$$$$OX+$$$$$$$$$$$#++@$$",
"$$@++#$$$$$$$$$$$+XO$$$$$$$$OX+$$$$$$$$$$$#++@$$",
"$$@++#$$$$$$$$$$$OX+$$$$$$$$+XO$$$$$$$$$$$#++@$$",
"$$@++#$$$$$$$$$$#oX@$$$$$$$$@Xo#$$$$$$$$$$#++@$$",
"$$@++#$$$$$$$$$$+Xo$$$$$$$$$$oX+$$$$$$$$$$#++@$$",
"$$@++#$$$$$$$$#Ooo#$$$$$$$$$$@ooO#$$$$$$$$#++@$$",
"$$@++#$$$$$$$$@XX+$$$$$$$$$$$$+XX@$$$$$$$$#++@$$",
"$$@++##########Ooo@$########$@Xo+##########++@$$",
"$$@++##########$+Xo##########oX+$$#########++@$$",
"$$@++############oX@$######$+Xo############++@$$",
"$$@++############OXO$#######OXO$###########++@$$",
"$$@++############OXO$#######OX+$###########++@$$",
"$$@++############+XO$#######OX+$###########++@$$",
"$$@++############+XO$#######OX+$###########++@$$",
"$$@++############+XO$#######OX+$###########++@$$",
"$$@++############+XO########OX+$###########++@$$",
"$$@++############+XO########OX+$###########++@$$",
"$$@++############+XO########OX+$###########++@$$",
"$$@++############+XO########OX+$###########++@$$",
"$$@++############+Xo########oo+$###########++@$$",
"$$@++############+Xo+$$###$+oo+$###########++@$$",
"$$@++#############oooO@$$@Oooo#############++@$$",
"$$@++@$###########+XX.O$$O.XX+$###########@O+@$$",
"$$#O++#############@++@$$@++@$############++O#$$",
"$$$o+++############$$$$##$$$$############+++o$$$",
"$$$+.++++++++++++++++++++++++++++++++++++++.+$$$",
"$$$$O o++++++++++++++++++++++++++++++++++o O$$$$",
"$$$$$#X                                  X#$$$$$",
"$$$$$$$$################################$$$$$$$$",
"$$$$$$$$$$$$$$$$$$$$$$$$$$$$$$$$$$$$$$$$$$$$$$$$"
};
